# xmcd
#
# Track frame offsets: 
#        150
#        21053
#        25577
#        45873
#        63446
#        82137
#        85703
#        102523
#        124088
#        146067
#        162245
#        177322
#        194704
#        198170
#        217516
#
# Disc length: 3103 seconds
#
# Revision: 0
# Processed by: cddbd v1.5.1PL2 Copyright (c) Steve Scherf et al.
# Submitted via: ExactAudioCopy v0.95b4
#
DISCID=c30c1d0f
DTITLE=Sarah Connor - Key to my Soul
DYEAR=1900
DGENRE=Ballad
TTITLE0=Music is the Key
TTITLE1=Love is color blind
TTITLE2=Just one last dance
TTITLE3=My Intuition
TTITLE4=Daddy´s Eyes
TTITLE5=Whatcha Wearring?
TTITLE6=Hasta la Vista
TTITLE7=I´m gonna find you
TTITLE8=When two become one
TTITLE9=Are u ready to ride
TTITLE10=For the People
TTITLE11=I want some of that
TTITLE12=At the Station
TTITLE13=Every Moment of my life
TTITLE14=Turn off the lights
EXTD=
EXTT0=
EXTT1=
EXTT2=
EXTT3=
EXTT4=
EXTT5=
EXTT6=
EXTT7=
EXTT8=
EXTT9=
EXTT10=
EXTT11=
EXTT12=
EXTT13=
EXTT14=
PLAYORDER=
